{
    "asset" : {
        "generator" : "Khronos glTF Blender I/O v1.6.16",
        "version" : "2.0"
    },
    "scene" : 0,
    "scenes" : [
        {
            "name" : "Scene",
            "nodes" : [
                9,
                10,
                11,
                12
            ]
        }
    ],
    "nodes" : [
        {
            "name" : "LowerArmR",
            "rotation" : [
                -2.9325783468259203e-10,
                1.8855183725463576e-07,
                0.00604266719892621,
                0.9999817609786987
            ],
            "scale" : [
                0.9999999403953552,
                0.9999999403953552,
                1
            ],
            "translation" : [
                1.8067650842112926e-07,
                3.600944995880127,
                2.842170943040401e-14
            ]
        },
        {
            "children" : [
                0
            ],
            "name" : "UpperArmR",
            "rotation" : [
                2.7743579877892444e-08,
                -7.116309319599168e-08,
                0.7088097333908081,
                0.705399751663208
            ],
            "scale" : [
                1.0000001192092896,
                1.0000001192092896,
                1
            ],
            "translation" : [
                1.1175870895385742e-08,
                3.989238977432251,
                -5.573319583618286e-14
            ]
        },
        {
            "children" : [
                1
            ],
            "name" : "ShoulderR",
            "rotation" : [
                2.604820892315729e-08,
                -2.5298705352838624e-08,
                0.7032744288444519,
                0.7109184861183167
            ],
            "translation" : [
                0,
                1,
                0
            ]
        },
        {
            "name" : "LowerArmL",
            "rotation" : [
                6.5737384424835454e-09,
                1.7759573722742061e-07,
                0.015872973948717117,
                0.9998740553855896
            ],
            "scale" : [
                0.9999999403953552,
                0.9999999403953552,
                1
            ],
            "translation" : [
                4.3027074525525677e-07,
                3.514897108078003,
                -3.979039320256561e-13
            ]
        },
        {
            "children" : [
                3
            ],
            "name" : "UpperArmL",
            "rotation" : [
                -3.6948713955098356e-07,
                -5.4068213017899325e-08,
                -0.7188659906387329,
                0.695148766040802
            ],
            "scale" : [
                0.9999999403953552,
                0.9999999403953552,
                1
            ],
            "translation" : [
                1.5639514572285407e-07,
                4.054609775543213,
                1.8428481126080837e-13
            ]
        },
        {
            "children" : [
                4
            ],
            "name" : "ShoulderL",
            "rotation" : [
                -1.045676825128794e-07,
                -1.0885898404922045e-07,
                -0.6995457410812378,
                0.714587926864624
            ],
            "translation" : [
                0,
                1,
                0
            ]
        },
        {
            "name" : "Bone.008",
            "rotation" : [
                6.730115842401574e-08,
                -1.8581722827093472e-08,
                0.006802249699831009,
                0.9999768733978271
            ],
            "scale" : [
                0.9999999403953552,
                1,
                1
            ],
            "translation" : [
                0,
                1,
                0
            ]
        },
        {
            "children" : [
                2,
                5,
                6
            ],
            "name" : "Core"
        },
        {
            "name" : "Bone.001"
        },
        {
            "children" : [
                7,
                8
            ],
            "name" : "Armature"
        },
        {
            "mesh" : 0,
            "name" : "NightLordPrim",
            "scale" : [
                0.45681560039520264,
                0.45681560039520264,
                0.45681560039520264
            ],
            "translation" : [
                0.008694291114807129,
                4.707540035247803,
                -0.20635604858398438
            ]
        },
        {
            "name" : "Light",
            "rotation" : [
                0.16907575726509094,
                0.7558803558349609,
                -0.27217137813568115,
                0.570947527885437
            ],
            "translation" : [
                4.076245307922363,
                5.903861999511719,
                -1.0054539442062378
            ]
        },
        {
            "name" : "Camera",
            "rotation" : [
                0.483536034822464,
                0.33687159419059753,
                -0.20870360732078552,
                0.7804827094078064
            ],
            "translation" : [
                7.358891487121582,
                4.958309173583984,
                6.925790786743164
            ]
        }
    ],
    "meshes" : [
        {
            "name" : "NightLordPrim",
            "primitives" : [
                {
                    "attributes" : {
                        "POSITION" : 0,
                        "NORMAL" : 1
                    },
                    "indices" : 2
                }
            ]
        }
    ],
    "accessors" : [
        {
            "bufferView" : 0,
            "componentType" : 5126,
            "count" : 51358,
            "max" : [
                6.295185089111328,
                8.572948455810547,
                4.825473785400391
            ],
            "min" : [
                -6.145814895629883,
                -4.899051189422607,
                -5.204524993896484
            ],
            "type" : "VEC3"
        },
        {
            "bufferView" : 1,
            "componentType" : 5126,
            "count" : 51358,
            "type" : "VEC3"
        },
        {
            "bufferView" : 2,
            "componentType" : 5123,
            "count" : 51609,
            "type" : "SCALAR"
        }
    ],
    "bufferViews" : [
        {
            "buffer" : 0,
            "byteLength" : 616296,
            "byteOffset" : 0
        },
        {
            "buffer" : 0,
            "byteLength" : 616296,
            "byteOffset" : 616296
        },
        {
            "buffer" : 0,
            "byteLength" : 103218,
            "byteOffset" : 1232592
        }
    ],
    "buffers" : [
        {
            "byteLength" : 1335812,
            "uri" : "skeleton.bin"
        }
    ]
}
